<?xml version="1.0" encoding="UTF-8" standalone="no"?>
<!-- Page 1 -->

<svg
   xmlns:dc="http://purl.org/dc/elements/1.1/"
   xmlns:cc="http://creativecommons.org/ns#"
   xmlns:rdf="http://www.w3.org/1999/02/22-rdf-syntax-ns#"
   xmlns:svg="http://www.w3.org/2000/svg"
   xmlns="http://www.w3.org/2000/svg"
   xmlns:sodipodi="http://sodipodi.sourceforge.net/DTD/sodipodi-0.dtd"
   xmlns:inkscape="http://www.inkscape.org/namespaces/inkscape"
   x="0"
   y="0"
   width="716.70001"
   height="716.70001"
   viewBox="0 0 716.70001 716.70001"
   version="1.1"
   style="display:block"
   id="svg17"
   sodipodi:docname="codepen.svg"
   inkscape:version="0.92.2 (5c3e80d, 2017-08-06)">
  <metadata
     id="metadata21">
    <rdf:RDF>
      <cc:Work
         rdf:about="">
        <dc:format>image/svg+xml</dc:format>
        <dc:type
           rdf:resource="http://purl.org/dc/dcmitype/StillImage" />
      </cc:Work>
    </rdf:RDF>
  </metadata>
  <sodipodi:namedview
     pagecolor="#ffffff"
     bordercolor="#666666"
     borderopacity="1"
     objecttolerance="10"
     gridtolerance="10"
     guidetolerance="10"
     inkscape:pageopacity="0"
     inkscape:pageshadow="2"
     inkscape:window-width="1920"
     inkscape:window-height="1057"
     id="namedview19"
     showgrid="false"
     inkscape:zoom="0.61861075"
     inkscape:cx="163.19753"
     inkscape:cy="323.97195"
     inkscape:window-x="1912"
     inkscape:window-y="-8"
     inkscape:window-maximized="1"
     inkscape:current-layer="g15" />
  <defs
     id="defs7">
    <clipPath
       id="c_1">
      <path
         d="M 0,0 H 763 V 763 H 0 Z"
         id="path2"
         inkscape:connector-curvature="0" />
    </clipPath>
    <style
       type="text/css"
       id="style5"><![CDATA[

.g0_1{
fill: #231F20;
}

]]></style>
  </defs>
  <g
     clip-path="url(#c_1)"
     id="g15"
     transform="translate(-22.9,-22.9)">
    <path
       d="M 0,0 V 763 H 763 V 0 Z"
       id="path9"
       inkscape:connector-curvature="0"
       style="fill:#ffffff;stroke:none" />
    <path
       d="M 381.3,680.7 C 216.1,680.7 81.8,546.4 81.8,381.3 81.8,216.1 216.1,81.8 381.3,81.8 c 165.1,0 299.4,134.3 299.4,299.5 0,165.1 -134.3,299.4 -299.4,299.4 m 0,-657.8 c -198,0 -358.4,160.4 -358.4,358.4 0,197.9 160.4,358.3 358.4,358.3 197.9,0 358.3,-160.4 358.3,-358.3 0,-198 -160.4,-358.4 -358.3,-358.4 z"
       class="g0_1"
       id="path11"
       inkscape:connector-curvature="0"
       style="fill:#231f20" />
    <path
       d="m 564.7,413.1 -47.6,-31.8 47.6,-31.9 z M 400.3,548.2 v -88.8 l 82.5,-55.2 66.7,44.5 z m -19,-121.9 -67.4,-45 67.4,-45.1 67.3,45.1 z M 362.2,548.2 213,448.7 l 66.7,-44.5 82.5,55.2 z m -164.4,-198.8 47.6,31.9 -47.6,31.8 z M 362.2,214.3 v 88.8 L 279.7,358.4 213,313.8 Z m 38.1,0 149.2,99.5 -66.7,44.6 -82.5,-55.3 z m 202.3,97 c 0,-0.3 -0.1,-0.6 -0.1,-0.9 -0.1,-0.5 -0.2,-1 -0.3,-1.6 -0.1,-0.3 -0.2,-0.6 -0.3,-0.9 -0.2,-0.4 -0.3,-0.9 -0.5,-1.4 -0.2,-0.3 -0.3,-0.6 -0.5,-0.9 -0.2,-0.4 -0.4,-0.9 -0.6,-1.3 -0.2,-0.3 -0.4,-0.6 -0.5,-0.8 -0.3,-0.4 -0.6,-0.8 -0.8,-1.2 -0.3,-0.3 -0.5,-0.6 -0.7,-0.8 -0.3,-0.4 -0.6,-0.7 -0.9,-1.1 -0.3,-0.2 -0.5,-0.5 -0.8,-0.7 -0.4,-0.3 -0.7,-0.6 -1.1,-0.9 -0.3,-0.2 -0.5,-0.4 -0.8,-0.7 -0.2,0 -0.3,-0.1 -0.4,-0.2 l -202.5,-135 c -6.4,-4.3 -14.7,-4.3 -21.1,0 l -202.5,135 c -0.1,0.1 -0.2,0.2 -0.3,0.2 -0.3,0.3 -0.6,0.5 -0.9,0.7 -0.4,0.3 -0.7,0.6 -1.1,0.9 -0.3,0.2 -0.5,0.5 -0.7,0.7 -0.4,0.4 -0.7,0.7 -1,1.1 -0.2,0.2 -0.4,0.5 -0.6,0.8 -0.3,0.4 -0.6,0.8 -0.8,1.2 -0.2,0.2 -0.4,0.5 -0.6,0.8 -0.2,0.4 -0.4,0.9 -0.6,1.3 -0.2,0.3 -0.3,0.6 -0.5,0.9 -0.2,0.5 -0.3,1 -0.5,1.4 -0.1,0.3 -0.2,0.6 -0.3,0.9 -0.1,0.6 -0.2,1.1 -0.3,1.6 0,0.3 -0.1,0.6 -0.1,0.9 -0.2,0.8 -0.2,1.6 -0.2,2.4 v 135.1 c 0,0.8 0,1.6 0.2,2.5 0,0.2 0.1,0.5 0.1,0.8 0.1,0.5 0.2,1 0.3,1.6 0.1,0.3 0.2,0.6 0.3,0.9 0.2,0.5 0.3,0.9 0.5,1.4 0.2,0.3 0.3,0.6 0.5,0.9 0.2,0.4 0.4,0.9 0.6,1.3 0.2,0.3 0.4,0.6 0.6,0.9 0.2,0.4 0.5,0.7 0.8,1.1 0.2,0.3 0.4,0.6 0.6,0.8 0.3,0.4 0.6,0.7 1,1.1 0.2,0.2 0.4,0.5 0.7,0.7 0.4,0.3 0.7,0.6 1.1,0.9 0.3,0.2 0.6,0.5 0.9,0.7 0.1,0 0.2,0.1 0.3,0.2 l 202.5,135 c 3.2,2.2 6.9,3.2 10.6,3.2 3.6,0 7.3,-1 10.5,-3.2 l 202.5,-135 c 0.1,-0.1 0.2,-0.2 0.4,-0.2 0.3,-0.2 0.5,-0.5 0.8,-0.7 0.4,-0.3 0.7,-0.6 1.1,-0.9 0.3,-0.2 0.5,-0.5 0.8,-0.7 0.3,-0.4 0.6,-0.7 0.9,-1.1 0.2,-0.2 0.4,-0.5 0.7,-0.8 0.2,-0.4 0.5,-0.7 0.8,-1.1 0.1,-0.3 0.3,-0.6 0.5,-0.9 0.2,-0.4 0.4,-0.9 0.6,-1.3 0.2,-0.3 0.3,-0.6 0.5,-0.9 0.2,-0.5 0.3,-0.9 0.5,-1.4 0.1,-0.3 0.2,-0.6 0.3,-0.9 0.1,-0.6 0.2,-1.1 0.3,-1.6 0,-0.3 0.1,-0.6 0.1,-0.8 0.2,-0.9 0.2,-1.7 0.2,-2.5 V 313.7 c 0,-0.8 0,-1.6 -0.2,-2.4 z"
       class="g0_1"
       id="path13"
       inkscape:connector-curvature="0"
       style="fill:#231f20" />
  </g>
</svg>
