<?xml version="1.0" encoding="UTF-8" standalone="no"?>
<!-- Svg Vector Icons : http://www.onlinewebfonts.com/icon -->

<svg
   xmlns:dc="http://purl.org/dc/elements/1.1/"
   xmlns:cc="http://creativecommons.org/ns#"
   xmlns:rdf="http://www.w3.org/1999/02/22-rdf-syntax-ns#"
   xmlns:svg="http://www.w3.org/2000/svg"
   xmlns="http://www.w3.org/2000/svg"
   xmlns:sodipodi="http://sodipodi.sourceforge.net/DTD/sodipodi-0.dtd"
   xmlns:inkscape="http://www.inkscape.org/namespaces/inkscape"
   version="1.1"
   x="0px"
   y="0px"
   viewBox="0 0 329.07999 390.29999"
   enable-background="new 0 0 1000 1000"
   xml:space="preserve"
   id="svg20"
   sodipodi:docname="6a7276a7d91186576fa9db57ed79dab8.svg"
   inkscape:version="0.92.2 (5c3e80d, 2017-08-06)"
   width="329.07999"
   height="390.29999"><defs
     id="defs24" /><sodipodi:namedview
     pagecolor="#ffffff"
     bordercolor="#666666"
     borderopacity="1"
     objecttolerance="10"
     gridtolerance="10"
     guidetolerance="10"
     inkscape:pageopacity="0"
     inkscape:pageshadow="2"
     inkscape:window-width="1920"
     inkscape:window-height="1057"
     id="namedview22"
     showgrid="false"
     inkscape:zoom="0.6675088"
     inkscape:cx="-254.70224"
     inkscape:cy="122.40755"
     inkscape:window-x="1912"
     inkscape:window-y="-8"
     inkscape:window-maximized="1"
     inkscape:current-layer="g16" /><metadata
     id="metadata2"> Svg Vector Icons : http://www.onlinewebfonts.com/icon <rdf:RDF><cc:Work
     rdf:about=""><dc:format>image/svg+xml</dc:format><dc:type
       rdf:resource="http://purl.org/dc/dcmitype/StillImage" /></cc:Work></rdf:RDF></metadata><g
     id="g18"
     transform="translate(-335.5,-220.67)"><g
       transform="matrix(0.1,0,0,-0.1,0,511)"
       id="g16"><path
         d="M 3355,2597.2 V 2291.1 H 4579.5 5804 v 306.1 306.1 H 4579.4 3355 Z"
         id="path6"
         inkscape:connector-curvature="0"
         style="fill:#f9f9f9" /><path
         d="m 4196.8,1774.5 v -306.1 h 1224.5 1224.5 v 306.1 306.1 H 5421.2 4196.8 Z"
         id="path8"
         inkscape:connector-curvature="0"
         style="fill:#f9f9f9" /><path
         d="M 3355,951.8 V 645.7 H 4579.5 5804 v 306.1 306.1 H 4579.4 3355 Z"
         id="path10"
         inkscape:connector-curvature="0"
         style="fill:#f9f9f9" /><path
         d="M 4196.8,129.1 V -177 H 5421.3 6645.8 V 129.1 435.2 H 5421.2 4196.8 Z"
         id="path12"
         inkscape:connector-curvature="0"
         style="fill:#f9f9f9" /><path
         d="M 3355,-693.6 V -999.7 H 4579.5 5804 v 306.1 306.1 H 4579.4 3355 Z"
         id="path14"
         inkscape:connector-curvature="0"
         style="fill:#f9f9f9" /><path
         id="path818"
         d="M 3355,2597.2 V 2291.1 H 4579.5 5804 v 306.1 306.1 H 4579.4 3355 Z"
         inkscape:connector-curvature="0"
         style="fill:#f9f9f9" /><path
         id="path820"
         d="m 4196.8,1774.5 v -306.1 h 1224.5 1224.5 v 306.1 306.1 H 5421.2 4196.8 Z"
         inkscape:connector-curvature="0"
         style="fill:#f9f9f9" /><path
         id="path822"
         d="M 3355,951.8 V 645.7 H 4579.5 5804 v 306.1 306.1 H 4579.4 3355 Z"
         inkscape:connector-curvature="0"
         style="fill:#f9f9f9" /><path
         id="path824"
         d="M 4196.8,129.1 V -177 H 5421.3 6645.8 V 129.1 435.2 H 5421.2 4196.8 Z"
         inkscape:connector-curvature="0"
         style="fill:#f9f9f9" /><path
         id="path826"
         d="M 3355,-693.6 V -999.7 H 4579.5 5804 v 306.1 306.1 H 4579.4 3355 Z"
         inkscape:connector-curvature="0"
         style="fill:#f9f9f9" /></g></g></svg>