<?xml version="1.0" encoding="UTF-8" standalone="no"?>
<!-- Svg Vector Icons : http://www.onlinewebfonts.com/icon -->

<svg
   xmlns:dc="http://purl.org/dc/elements/1.1/"
   xmlns:cc="http://creativecommons.org/ns#"
   xmlns:rdf="http://www.w3.org/1999/02/22-rdf-syntax-ns#"
   xmlns:svg="http://www.w3.org/2000/svg"
   xmlns="http://www.w3.org/2000/svg"
   xmlns:sodipodi="http://sodipodi.sourceforge.net/DTD/sodipodi-0.dtd"
   xmlns:inkscape="http://www.inkscape.org/namespaces/inkscape"
   version="1.1"
   x="0px"
   y="0px"
   viewBox="0 0 1000 1000"
   enable-background="new 0 0 1000 1000"
   xml:space="preserve"
   id="svg8"
   sodipodi:docname="globe.svg"
   inkscape:version="0.92.2 (5c3e80d, 2017-08-06)"><defs
     id="defs12" /><sodipodi:namedview
     pagecolor="#ffffff"
     bordercolor="#666666"
     borderopacity="1"
     objecttolerance="10"
     gridtolerance="10"
     guidetolerance="10"
     inkscape:pageopacity="0"
     inkscape:pageshadow="2"
     inkscape:window-width="1920"
     inkscape:window-height="1057"
     id="namedview10"
     showgrid="false"
     inkscape:zoom="0.236"
     inkscape:cx="500"
     inkscape:cy="500"
     inkscape:window-x="1912"
     inkscape:window-y="-8"
     inkscape:window-maximized="1"
     inkscape:current-layer="svg8" /><metadata
     id="metadata2"> Svg Vector Icons : http://www.onlinewebfonts.com/icon <rdf:RDF><cc:Work
     rdf:about=""><dc:format>image/svg+xml</dc:format><dc:type
       rdf:resource="http://purl.org/dc/dcmitype/StillImage" /></cc:Work></rdf:RDF></metadata><g
     id="g6"
     style="fill:#f9f9f9"><path
       d="M500,10C229.4,10,10,229.4,10,500s219.4,490,490,490c270.6,0,490-219.4,490-490S770.6,10,500,10z M449.2,917c-93-11.1-179-52.8-246.2-120C123.7,717.7,80,612.2,80,500c0-101,35.4-196.5,100.4-272.5c1.7,20.1,5.8,41.6,4.7,57c-3.9,56.1-9.4,91.1,23.4,138.4c12.8,18.4,15.9,44.8,22.1,66.1c6.1,20.9,30.4,31.8,47.2,44.6c33.8,25.9,66.2,56.1,102.1,78.9c23.7,15.1,38.5,22.6,31.5,51.4c-5.6,23.2-7.1,37.5-19.2,58.2c-3.7,6.3,13.8,46.9,19.7,52.7c17.7,17.7,35.2,33.9,54.4,49.8C496.2,849.5,463.5,881.5,449.2,917z M797,797c-60.4,60.4-135.9,100.1-218,115.6c11.6-28.8,32.4-54.3,51.6-69.2c16.7-12.9,37.7-37.7,46.4-57.4c8.7-19.6,20.3-36.6,32-54.7c16.6-25.7-41-64.4-59.7-72.5c-42.1-18.3-73.7-42.9-111.1-69.2c-26.6-18.7-80.7,9.8-110.8-3.3c-41.2-18-75.1-49.2-110.9-76.2c-36.9-27.8-35.2-60.3-35.2-101.3c28.9,1.1,70.1-8,89.3,15.3c6.1,7.3,26.9,40.1,40.9,28.5c11.4-9.5-8.4-47.7-12.3-56.7c-11.8-27.6,26.9-38.4,46.7-57.1c25.8-24.4,81.2-62.7,76.8-80.2c-4.4-17.5-55.4-67.1-85.4-59.3c-4.5,1.2-44,42.6-51.7,49.1c0.2-13.5,0.4-27.1,0.6-40.6c0.1-8.5-15.9-17.3-15.2-22.8c1.9-13.9,40.7-39.2,50.3-50.3c-6.8-4.2-29.8-24-36.8-21.1c-16.9,7-36,11.9-52.9,18.9c0-5.9-0.7-11.4-1.6-16.8c33.9-15,69.7-25.4,106.7-31L469.9,98l23.4,27.8l23.4,24.1l20.4,6.6l32.5-30.6l-8.4-21.9V84.4c64.2,9.3,124.8,33.3,177.9,70.2c-9.5,0.9-19.9,2.2-31.7,3.7c-4.9-2.9-11.1-4.2-16.4-6.2c15.4,33.1,31.4,65.7,47.7,98.3c17.4,34.9,56.1,72.3,62.8,109.1c8,43.4,2.4,82.8,6.8,133.8c4.2,49.2,55.4,105,55.4,105s23.6,8.1,43.3,5.2C888.8,676.2,851.3,742.7,797,797z"
       id="path4"
       style="fill:#f9f9f9" /></g></svg>