<?xml version="1.0" encoding="UTF-8" standalone="no"?>
<!-- Generator: Adobe Illustrator 19.0.0, SVG Export Plug-In . SVG Version: 6.00 Build 0)  -->

<svg
   xmlns:dc="http://purl.org/dc/elements/1.1/"
   xmlns:cc="http://creativecommons.org/ns#"
   xmlns:rdf="http://www.w3.org/1999/02/22-rdf-syntax-ns#"
   xmlns:svg="http://www.w3.org/2000/svg"
   xmlns="http://www.w3.org/2000/svg"
   xmlns:sodipodi="http://sodipodi.sourceforge.net/DTD/sodipodi-0.dtd"
   xmlns:inkscape="http://www.inkscape.org/namespaces/inkscape"
   version="1.1"
   id="Layer_1"
   x="0px"
   y="0px"
   viewBox="106 78 130 146"
   xml:space="preserve"
   sodipodi:docname="mongodb.svg"
   width="130"
   height="146"
   inkscape:version="0.92.2 (5c3e80d, 2017-08-06)"><metadata
     id="metadata21"><rdf:RDF><cc:Work
         rdf:about=""><dc:format>image/svg+xml</dc:format><dc:type
           rdf:resource="http://purl.org/dc/dcmitype/StillImage" /><dc:title></dc:title></cc:Work></rdf:RDF></metadata><defs
     id="defs19" /><sodipodi:namedview
     pagecolor="#ffffff"
     bordercolor="#666666"
     borderopacity="1"
     objecttolerance="10"
     gridtolerance="10"
     guidetolerance="10"
     inkscape:pageopacity="0"
     inkscape:pageshadow="2"
     inkscape:window-width="1920"
     inkscape:window-height="1057"
     id="namedview17"
     showgrid="false"
     inkscape:zoom="1.6164384"
     inkscape:cx="33.075226"
     inkscape:cy="69.3"
     inkscape:window-x="1912"
     inkscape:window-y="-8"
     inkscape:window-maximized="1"
     inkscape:current-layer="Layer_1" /><style
     type="text/css"
     id="style2">
	.st0{fill:#FFFFFF;}
	.st1{fill:#A6A385;}
	.st2{fill:#499D4A;}
	.st3{fill:#58AA50;}
</style><g
     id="g837"
     transform="translate(0.01186638,1.131358)"><path
       style="fill:#ffffff"
       inkscape:connector-curvature="0"
       id="path4"
       d="m 174.29492,220.91864 -3.8,-1.3 c 0,0 0.5,-19.3 -6.5,-20.7 -4.6,-5.4 0.7,-226.999996 17.4,-0.7 0,0 -5.7,2.9 -6.7,7.8 -1.2,4.8 -0.4,14.9 -0.4,14.9 z"
       class="st0" /><path
       style="fill:#a6a385"
       inkscape:connector-curvature="0"
       id="path6"
       d="m 174.29492,220.91864 -3.8,-1.3 c 0,0 0.5,-19.3 -6.5,-20.7 -4.6,-5.4 0.7,-226.999996 17.4,-0.7 0,0 -5.7,2.9 -6.7,7.8 -1.2,4.8 -0.4,14.9 -0.4,14.9 z"
       class="st1" /><path
       style="fill:#ffffff"
       inkscape:connector-curvature="0"
       id="path8"
       d="m 176.29492,202.31864 c 0,0 33.1,-21.8 25.4,-67.1 -7.5,-32.9 -25.1,-43.699996 -27,-47.899996 -2.1,-3 -4.2,-8.1 -4.2,-8.1 l 1.4,91.599996 c 0,0.1 -2.9,28.1 4.4,31.5"
       class="st0" /><path
       style="fill:#499d4a"
       inkscape:connector-curvature="0"
       id="path10"
       d="m 176.29492,202.31864 c 0,0 33.1,-21.8 25.4,-67.1 -7.5,-32.9 -25.1,-43.699996 -27,-47.899996 -2.1,-3 -4.2,-8.1 -4.2,-8.1 l 1.4,91.599996 c 0,0.1 -2.9,28.1 4.4,31.5"
       class="st2" /><path
       style="fill:#ffffff"
       inkscape:connector-curvature="0"
       id="path12"
       d="m 168.49492,203.51864 c 0,0 -31.1,-21.2 -29.3,-58.6 1.8,-37.4 23.7,-55.699996 28,-59.099996 2.8,-3 2.9,-4.1 3,-7 1.9,4.2 1.6,62.099996 1.8,68.899996 1,26.3 -1.3,50.8 -3.5,55.8 z"
       class="st0" /><path
       style="fill:#58aa50"
       inkscape:connector-curvature="0"
       id="path14"
       d="m 168.49492,203.51864 c 0,0 -31.1,-21.2 -29.3,-58.6 1.8,-37.4 23.7,-55.699996 28,-59.099996 2.8,-3 2.9,-4.1 3,-7 1.9,4.2 1.6,62.099996 1.8,68.899996 1,26.3 -1.3,50.8 -3.5,55.8 z"
       class="st3" /></g></svg>